<svg xmlns="http://www.w3.org/2000/svg" width="302" height="147" viewBox="0 0 302 147" fill="none"><g clip-path="url(#clip0_424_2)"><path d="M302 0H292.378V146.963H302V0Z" fill="#212121"/><path d="M282.502 126.334H272.211V130.632H279.786V136.649H272.211V140.947H282.502V146.965H266.209V120.318H282.502V126.335V126.334Z" fill="#212121"/><path d="M265.317 120.317V126.334H259.279V146.964H253.277V126.334H247.239V120.317H265.317Z" fill="#212121"/><path d="M246.347 136.363C246.347 137.796 246.09 139.138 245.578 140.393C245.066 141.647 244.333 142.774 243.381 143.777C241.38 145.926 238.938 147.001 236.056 147.001H236.021C234.639 147.001 233.323 146.733 232.073 146.196C230.822 145.658 229.697 144.853 228.696 143.778C227.768 142.775 227.041 141.648 226.517 140.394C225.992 139.14 225.73 137.797 225.73 136.364V120.319H231.733V136.258C231.733 136.902 231.846 137.512 232.073 138.084C232.3 138.657 232.609 139.159 233.002 139.588C233.395 140.018 233.853 140.358 234.378 140.609C234.902 140.86 235.461 140.985 236.057 140.985C236.653 140.985 237.207 140.86 237.719 140.609C238.231 140.358 238.683 140.018 239.076 139.588C239.469 139.159 239.779 138.657 240.005 138.084C240.232 137.512 240.345 136.902 240.345 136.258V120.319H246.348V136.364L246.347 136.363Z" fill="#212121"/><path d="M224.839 120.317V126.334H218.801V146.964H212.799V126.334H206.761V120.317H224.839Z" fill="#212121"/><path d="M205.868 120.317V146.963H199.866V120.317H205.868Z" fill="#212121"/><path d="M198.975 120.317V126.334H192.937V146.964H186.934V126.334H180.896V120.317H198.975Z" fill="#212121"/><path d="M180.487 138.69C180.487 139.55 180.367 140.374 180.129 141.162C179.867 141.998 179.48 142.773 178.968 143.49C178.455 144.206 177.861 144.821 177.181 145.334C176.502 145.848 175.746 146.248 174.912 146.534C174.078 146.82 173.198 146.963 172.269 146.963C171.125 146.963 170.059 146.748 169.072 146.319C168.083 145.889 167.214 145.298 166.463 144.545C165.713 143.793 165.124 142.916 164.694 141.913C164.266 140.91 164.051 139.835 164.051 138.689H170.053C170.053 139.31 170.268 139.841 170.697 140.283C171.125 140.725 171.649 140.945 172.269 140.945C172.769 140.945 173.209 140.796 173.591 140.498C173.972 140.2 174.234 139.824 174.377 139.369C174.449 139.202 174.484 138.987 174.484 138.724C174.484 138.103 174.269 137.603 173.841 137.221C173.412 136.839 172.888 136.648 172.269 136.648C171.125 136.648 170.059 136.44 169.072 136.021C168.083 135.603 167.214 135.031 166.463 134.302C165.713 133.575 165.124 132.72 164.694 131.741C164.266 130.762 164.051 129.699 164.051 128.554C164.051 127.718 164.17 126.906 164.408 126.118C164.67 125.282 165.058 124.506 165.57 123.789C166.082 123.074 166.677 122.458 167.357 121.945C168.035 121.431 168.792 121.032 169.625 120.745C170.458 120.459 171.34 120.316 172.269 120.316C173.412 120.316 174.478 120.531 175.466 120.961C176.454 121.39 177.324 121.982 178.074 122.734C178.825 123.486 179.414 124.363 179.843 125.366C180.272 126.37 180.487 127.432 180.487 128.554H174.484C174.484 127.932 174.269 127.407 173.841 126.978C173.412 126.548 172.888 126.333 172.269 126.333C171.768 126.333 171.328 126.482 170.947 126.78C170.566 127.079 170.304 127.455 170.161 127.909C170.089 128.1 170.053 128.315 170.053 128.554C170.053 129.175 170.268 129.676 170.697 130.057C171.125 130.439 171.649 130.63 172.269 130.63C173.412 130.63 174.478 130.839 175.466 131.257C176.454 131.675 177.324 132.248 178.074 132.976C178.825 133.705 179.414 134.558 179.843 135.537C180.272 136.517 180.487 137.567 180.487 138.689V138.69Z" fill="#212121"/><path d="M156.921 120.317H162.924V146.963H156.85L149.348 132.064V146.963H143.345V120.317H149.455L156.922 135.18V120.317H156.921Z" fill="#212121"/><path d="M141.861 120.317V146.964H135.859V120.317H141.861Z" fill="#212121"/><path d="M269.742 60.798H282.51V117.476H269.59L253.631 85.7856V117.476H240.863V60.798H253.859L269.742 92.4132V60.798Z" fill="#212121"/><path d="M235.468 74.0531C236.026 75.222 236.494 76.4405 236.874 77.71C237.254 78.9806 237.444 80.2997 237.444 81.6709V94.8503C237.444 96.3741 237.304 97.8482 237.026 99.2691C236.747 100.691 236.329 102.062 235.773 103.383C234.71 106.075 233.162 108.486 231.137 110.619C229.009 112.905 226.653 114.608 224.069 115.723C221.333 116.892 218.521 117.475 215.634 117.475H215.558C212.67 117.475 209.859 116.892 207.122 115.723C204.486 114.606 202.106 112.931 199.978 110.695C198.002 108.562 196.456 106.151 195.342 103.458C194.227 100.666 193.67 97.7961 193.67 94.8503V81.6709C193.67 80.2997 193.86 78.9794 194.24 77.71C194.62 76.4417 195.087 75.222 195.645 74.0531C196.202 72.8345 196.835 71.6917 197.546 70.6246C198.255 69.5574 199.066 68.5424 199.977 67.577C202.003 65.3942 204.385 63.7178 207.121 62.5489C209.755 61.3813 212.566 60.7968 215.557 60.7968H215.633C218.521 60.7968 221.332 61.3813 224.068 62.5489C226.702 63.7178 229.058 65.3942 231.136 67.577C232.959 69.5078 234.404 71.6657 235.467 74.0519L235.468 74.0531ZM225.817 86.318V85.4804C225.817 84.8202 225.728 84.1731 225.551 83.5378C225.373 82.9037 225.158 82.3074 224.906 81.7478C224.449 80.631 223.765 79.565 222.853 78.5488C221.941 77.4828 220.851 76.6701 219.585 76.1105C218.419 75.5521 217.077 75.2729 215.557 75.2729C214.189 75.2729 212.871 75.5532 211.606 76.1105C210.998 76.4157 210.415 76.7576 209.858 77.1386C209.299 77.5195 208.767 77.9892 208.262 78.5476C207.399 79.5639 206.716 80.631 206.21 81.7466C205.956 82.3062 205.741 82.9025 205.564 83.5366C205.386 84.1719 205.298 84.8202 205.298 85.4792V91.9541C205.298 93.3253 205.551 94.7225 206.059 96.1446C206.311 96.8047 206.616 97.4282 206.971 98.0115C207.325 98.5959 207.756 99.1673 208.263 99.7257C208.77 100.285 209.301 100.754 209.859 101.135C210.416 101.516 210.999 101.859 211.607 102.163C212.873 102.722 214.19 103 215.558 103C217.078 103 218.42 102.722 219.586 102.163C220.802 101.655 221.891 100.818 222.854 99.6488C223.919 98.532 224.652 97.3631 225.058 96.1446C225.564 94.8243 225.818 93.4282 225.818 91.9541V86.3168L225.817 86.318Z" fill="#212121"/><path d="M189.794 60.798V117.476H177.026V60.798H189.794Z" fill="#212121"/><path d="M174.672 60.798V73.5964H161.829V117.476H149.061V73.5964H136.218V60.798H174.673H174.672Z" fill="#212121"/><path d="M112.459 104.754C113.724 104.754 114.903 104.488 115.992 103.954C117.082 103.42 118.045 102.698 118.88 101.783C119.716 100.869 120.374 99.8026 120.856 98.5841C121.336 97.3655 121.578 96.07 121.578 94.6989H134.346C134.346 97.7464 133.825 100.641 132.788 103.384C131.749 106.126 130.167 108.59 128.039 110.773C125.911 112.957 123.542 114.634 120.933 115.801C118.323 116.97 115.499 117.553 112.459 117.553H112.383C106.252 117.553 101.06 115.294 96.8042 110.773C94.7777 108.64 93.2198 106.241 92.1305 103.574C91.0411 100.908 90.4971 98.1026 90.4971 95.1567V83.4254C90.4971 80.3778 91.0293 77.51 92.0927 74.8174C93.1561 72.1259 94.727 69.7136 96.8042 67.5805C101.06 63.0612 106.253 60.8004 112.383 60.8004H112.459C115.499 60.8004 118.322 61.3848 120.933 62.5525C123.541 63.7214 125.911 65.3978 128.039 67.5805C130.167 69.7645 131.749 72.2276 132.788 74.97C133.825 77.7123 134.346 80.6073 134.346 83.6549H121.578C121.578 82.2837 121.337 80.9883 120.856 79.7697C120.373 78.5511 119.716 77.484 118.88 76.5707C118.045 75.6562 117.082 74.9333 115.992 74.3997C114.902 73.8662 113.724 73.6 112.459 73.6C111.193 73.6 110 73.8662 108.887 74.3997C107.772 74.9333 106.797 75.6562 105.962 76.5707C105.126 77.4852 104.466 78.5511 103.986 79.7697C103.503 80.9883 103.264 82.2837 103.264 83.6549V94.7012C103.264 96.0724 103.503 97.3679 103.986 98.5864C104.467 99.805 105.126 100.872 105.962 101.785C106.797 102.7 107.772 103.423 108.887 103.956C110.001 104.49 111.192 104.756 112.459 104.756V104.754Z" fill="#212121"/><path d="M78.8825 117.477L71.2831 95.5367H60.7956L53.1962 117.477H39.4407L59.0477 60.7982H73.031L92.638 117.477H78.8825Z" fill="#212121"/><path d="M282.511 39.9606C282.511 41.8298 282.251 43.621 281.734 45.3353C281.164 47.1536 280.323 48.8407 279.209 50.3976C278.095 51.9557 276.8 53.2926 275.323 54.4082C273.847 55.525 272.202 56.3946 270.389 57.0169C268.575 57.6404 266.659 57.9515 264.639 57.9515C262.152 57.9515 259.834 57.4842 257.685 56.5496C255.535 55.6149 253.645 54.3301 252.013 52.6939C250.381 51.0578 249.099 49.1507 248.167 46.9691C247.234 44.7887 246.768 42.4521 246.768 39.9594H259.821C259.821 41.3104 260.287 42.4651 261.22 43.4258C262.152 44.3876 263.291 44.8668 264.639 44.8668C265.727 44.8668 266.684 44.5426 267.514 43.8931C268.342 43.2448 268.912 42.4261 269.223 41.4394C269.379 41.0762 269.455 40.6089 269.455 40.0375C269.455 38.6876 268.989 37.598 268.057 36.7663C267.124 35.9358 265.984 35.5205 264.638 35.5205C262.151 35.5205 259.833 35.0662 257.684 34.1576C255.533 33.2502 253.644 32.0032 252.012 30.4191C250.379 28.8362 249.098 26.9799 248.165 24.8504C247.233 22.722 246.767 20.4103 246.767 17.9188C246.767 16.1016 247.025 14.3364 247.543 12.6222C248.113 10.805 248.954 9.11674 250.069 7.55982C251.182 6.00172 252.478 4.66603 253.954 3.54922C255.431 2.43358 257.075 1.56284 258.889 0.940546C260.702 0.317068 262.618 0.00592041 264.639 0.00592041C267.126 0.00592041 269.444 0.473233 271.593 1.40786C273.742 2.34248 275.633 3.6273 277.265 5.26348C278.897 6.89967 280.179 8.80796 281.111 10.9884C282.044 13.1688 282.51 15.4805 282.51 17.92H269.457C269.457 16.5701 268.99 15.4272 268.058 14.4926C267.126 13.558 265.986 13.0907 264.639 13.0907C263.551 13.0907 262.592 13.416 261.764 14.0643C260.934 14.7138 260.365 15.5325 260.055 16.518C259.899 16.9345 259.822 17.4018 259.822 17.92C259.822 19.271 260.289 20.3618 261.221 21.1912C262.153 22.0229 263.292 22.4369 264.64 22.4369C267.127 22.4369 269.445 22.8924 271.594 23.7998C273.743 24.7084 275.634 25.9554 277.266 27.5383C278.898 29.1225 280.18 30.9787 281.112 33.107C282.045 35.2366 282.511 37.5211 282.511 39.9606Z" fill="#212121"/><path d="M232.572 13.1191H237.635L233.507 20.3819H241.453L245.582 13.1191V0H232.572V13.1191Z" fill="#212121"/><path d="M229.599 13.0895H207.222V22.4357H223.695V35.5205H207.222V44.8667H229.599V57.9515H194.168V0.00354004H229.599V13.0883V13.0895Z" fill="#212121"/><path d="M175.054 44.8667H190.516V57.9515H162.001V0.00354004H175.054V44.8667Z" fill="#212121"/><path d="M157.961 10.986C158.893 13.1664 159.36 15.5029 159.36 17.9957C159.36 20.4884 158.893 22.825 157.961 25.0054C157.029 27.1858 155.759 29.0822 154.154 30.6912C152.495 32.3534 150.58 33.6512 148.404 34.5859C146.228 35.5205 143.896 35.9878 141.411 35.9878H136.827V57.9515H123.773V0.00354004H141.411C143.897 0.00354004 146.228 0.470853 148.404 1.40548C150.683 2.39216 152.599 3.66396 154.154 5.22206C155.708 6.78017 156.975 8.70147 157.961 10.986ZM147.705 20.4884C148.066 19.762 148.249 18.8794 148.249 17.8407C148.249 16.8552 148.067 15.9714 147.705 15.193C147.289 14.3625 146.798 13.6349 146.228 13.0126C145.606 12.4423 144.881 11.949 144.053 11.5326C143.277 11.2214 142.395 11.0652 141.412 11.0652H134.807V24.6173H141.412C142.395 24.6173 143.277 24.4611 144.053 24.15C144.882 23.7868 145.608 23.2935 146.228 22.67C146.797 22.0997 147.289 21.3722 147.705 20.4896V20.4884Z" fill="#212121"/><path d="M118.412 13.5568C118.981 14.7517 119.461 15.9986 119.849 17.2953C120.237 18.5943 120.432 19.943 120.432 21.3449V34.8189C120.432 36.377 120.289 37.8831 120.005 39.3359C119.719 40.7899 119.292 42.1918 118.723 43.5417C117.635 46.2947 116.055 48.7602 113.983 50.9406C111.808 53.2772 109.399 55.0175 106.757 56.1591C103.96 57.354 101.085 57.9503 98.1319 57.9503H98.054C95.1011 57.9503 92.2261 57.354 89.4289 56.1591C86.7345 55.0175 84.3009 53.3044 82.1257 51.0187C80.1052 48.8383 78.5249 46.3728 77.386 43.6198C76.2459 40.765 75.677 37.831 75.677 34.8189V21.3449C75.677 19.943 75.8717 18.5931 76.26 17.2953C76.6483 15.9975 77.1263 14.7517 77.6975 13.5568C78.2664 12.311 78.9143 11.1421 79.6402 10.0525C80.3648 8.96175 81.1945 7.92419 82.1269 6.93751C84.1982 4.70506 86.633 2.99197 89.4301 1.79707C92.1234 0.60099 94.9984 0.00354004 98.0552 0.00354004H98.1331C101.086 0.00354004 103.961 0.60099 106.758 1.79471C109.451 2.98961 111.859 4.70388 113.985 6.93515C115.849 8.90969 117.326 11.1161 118.414 13.5556L118.412 13.5568ZM108.544 26.0961V25.2396C108.544 24.5653 108.453 23.9039 108.272 23.2532C108.091 22.6049 107.87 21.9944 107.611 21.423C107.145 20.2814 106.445 19.1906 105.513 18.1518C104.581 17.061 103.467 16.2317 102.172 15.6591C100.98 15.0889 99.6072 14.8026 98.054 14.8026C96.6554 14.8026 95.3076 15.0889 94.0141 15.6591C93.3921 15.9703 92.7961 16.3216 92.2273 16.7109C91.6572 17.1001 91.1131 17.5804 90.595 18.1518C89.7134 19.1918 89.0147 20.2814 88.4966 21.423C88.2369 21.9944 88.0174 22.6049 87.8356 23.2532C87.6539 23.9027 87.5642 24.5653 87.5642 25.2396V31.8601C87.5642 33.262 87.8227 34.6912 88.3408 36.144C88.5993 36.8195 88.9108 37.456 89.2732 38.0523C89.6355 38.6497 90.0757 39.2341 90.5938 39.8044C91.1108 40.3758 91.6548 40.8561 92.2261 41.2454C92.7949 41.6346 93.391 41.9848 94.0129 42.2971C95.3076 42.8685 96.6543 43.1537 98.0528 43.1537C99.6072 43.1537 100.979 42.8685 102.171 42.2971C103.413 41.7789 104.528 40.9224 105.512 39.7263C106.6 38.5846 107.349 37.3897 107.765 36.144C108.282 34.7941 108.541 33.3673 108.541 31.8601V26.0961H108.544Z" fill="#212121"/><path d="M73.5809 13.0895H51.2039V22.4357H67.6763V35.5205H51.2039V44.8667H73.5809V57.9515H38.1495V0.00354004H73.5809V13.0883V13.0895Z" fill="#212121"/><path d="M34.1875 10.986C35.1199 13.1664 35.5861 15.5029 35.5861 17.9957C35.5861 20.4884 35.1199 22.825 34.1875 25.0054C33.2551 27.1858 31.9852 29.0822 30.3801 30.6912C28.7219 32.3534 26.8064 33.6512 24.6301 34.5859C22.4549 35.5205 20.124 35.9878 17.6372 35.9878H13.0533V57.9515H0V0.00354004H17.6384C20.1251 0.00354004 22.4561 0.470853 24.6312 1.40548C26.9102 2.39216 28.8269 3.66396 30.3813 5.22206C31.9356 6.78017 33.2044 8.70147 34.1887 10.986H34.1875ZM23.9314 20.4884C24.2937 19.762 24.4755 18.8794 24.4755 17.8407C24.4755 16.8552 24.2937 15.9714 23.9314 15.193C23.5159 14.3625 23.025 13.6349 22.4549 13.0126C21.8329 12.4423 21.1071 11.949 20.2798 11.5326C19.5032 11.2214 18.6215 11.0652 17.6384 11.0652H11.0339V24.6173H17.6384C18.6215 24.6173 19.5032 24.4611 20.2798 24.15C21.1083 23.7868 21.8341 23.2935 22.4549 22.67C23.0238 22.0997 23.5159 21.3722 23.9314 20.4896V20.4884Z" fill="#212121"/></g><defs><clipPath id="clip0_424_2"><rect width="302" height="147" fill="white"/></clipPath></defs></svg>